<svg width="215" height="224" viewBox="0 0 215 224" fill="none" xmlns="http://www.w3.org/2000/svg">
<path d="M107.61 0.926501C82.2754 0.935045 57.7703 10.5784 38.4777 28.1316C19.1852 45.6848 6.36373 70.0028 2.30688 96.7357C-1.74996 123.469 3.22241 150.872 16.3346 174.045C29.4467 197.218 49.8433 214.648 73.8758 223.218C79.2097 224.276 81.1681 220.744 81.1681 217.729C81.1681 215.011 81.0684 206.021 81.0257 196.49C51.3367 203.394 45.0628 183.038 45.0628 183.038C40.206 169.853 33.2129 166.351 33.2129 166.351C23.5278 159.271 33.925 159.416 33.925 159.416C44.607 160.223 50.3041 171.17 50.3041 171.17C59.8183 188.603 75.2645 183.563 81.3532 180.648C82.3075 173.278 85.0777 168.246 88.1257 165.422C64.4258 162.537 39.5081 152.755 39.5081 109.088C39.36 97.7513 43.297 86.7881 50.5035 78.4696C49.3926 75.592 45.7464 64.0055 51.5361 48.2852C51.5361 48.2852 60.4948 45.2401 80.8832 59.9783C98.3653 54.8649 116.811 54.8649 134.293 59.9783C154.732 45.1792 163.655 48.2243 163.655 48.2243C169.466 63.9369 165.791 75.5387 164.702 78.4087C171.911 86.7241 175.844 97.6907 175.683 109.027C175.683 152.838 150.722 162.484 126.958 165.308C130.783 168.848 134.194 175.791 134.194 186.433C134.194 201.659 134.073 213.976 134.073 217.737C134.073 220.782 135.995 224.329 141.401 223.21C165.438 214.639 185.837 197.204 198.949 174.024C212.061 150.845 217.029 123.435 212.965 96.698C208.901 69.9612 196.069 45.6428 176.766 28.0944C157.463 10.5461 132.949 0.912973 107.61 0.918887V0.926501Z" fill="#333333"/>
</svg>
