<svg width="442" height="437" viewBox="0 0 442 437" fill="none" xmlns="http://www.w3.org/2000/svg">
<path fill-rule="evenodd" clip-rule="evenodd" d="M52.7059 152.495H126.741V372.67H52.7059V152.495Z" fill="#333333"/>
<path d="M90.2233 46.3288C64.8937 46.3288 48.3438 62.7931 48.3438 84.3726C48.3438 105.499 64.3904 122.417 89.2434 122.417H89.7217C115.536 122.417 131.605 105.499 131.605 84.3726C131.126 62.7931 115.538 46.3288 90.2233 46.3288ZM308.431 147.318C269.161 147.318 251.571 168.67 241.72 183.668V152.495H167.704C168.686 173.148 167.704 372.669 167.704 372.669H241.72V249.708C241.72 243.126 242.198 236.547 244.16 231.843C249.502 218.699 261.689 205.084 282.138 205.084C308.911 205.084 319.636 225.281 319.636 254.867V372.669H393.655V246.408C393.655 178.778 357.133 147.318 308.431 147.318Z" fill="#333333"/>
</svg>
