<svg width="289" height="35" viewBox="0 0 289 35" fill="none" xmlns="http://www.w3.org/2000/svg">
<path d="M0.413156 0.287998H6.82116V27H0.413156V0.287998ZM19.105 18.72C18.193 18.72 17.509 18.888 17.053 19.224C16.621 19.536 16.405 20.04 16.405 20.736C16.405 21.432 16.633 21.984 17.089 22.392C17.545 22.776 18.193 22.968 19.033 22.968C19.681 22.968 20.269 22.86 20.797 22.644C21.349 22.428 21.805 22.128 22.165 21.744C22.549 21.336 22.801 20.88 22.921 20.376L23.821 23.22C23.293 24.54 22.453 25.548 21.301 26.244C20.149 26.94 18.733 27.288 17.053 27.288C15.661 27.288 14.461 27.024 13.453 26.496C12.469 25.968 11.713 25.248 11.185 24.336C10.657 23.424 10.393 22.38 10.393 21.204C10.393 19.356 11.029 17.916 12.301 16.884C13.597 15.852 15.445 15.324 17.845 15.3H23.533V18.72H19.105ZM22.921 15.084C22.921 14.148 22.609 13.416 21.985 12.888C21.361 12.36 20.437 12.096 19.213 12.096C18.397 12.096 17.485 12.228 16.477 12.492C15.469 12.756 14.437 13.152 13.381 13.68L11.617 9.432C12.649 8.976 13.645 8.592 14.605 8.28C15.589 7.944 16.585 7.692 17.593 7.524C18.601 7.356 19.633 7.272 20.689 7.272C23.401 7.272 25.489 7.896 26.953 9.144C28.441 10.368 29.197 12.096 29.221 14.328V27H22.921V15.084ZM40.8701 7.308C42.5261 7.308 43.9421 7.716 45.1181 8.532C46.2941 9.324 47.2061 10.464 47.8541 11.952C48.5021 13.44 48.8261 15.192 48.8261 17.208C48.8261 19.248 48.5141 21.024 47.8901 22.536C47.2661 24.048 46.3661 25.212 45.1901 26.028C44.0381 26.844 42.6461 27.252 41.0141 27.252C39.1901 27.252 37.5941 26.832 36.2261 25.992C34.8581 25.152 33.8021 23.976 33.0581 22.464C32.3141 20.952 31.9421 19.188 31.9421 17.172C31.9421 15.18 32.3021 13.452 33.0221 11.988C33.7661 10.524 34.8101 9.384 36.1541 8.568C37.5221 7.728 39.0941 7.308 40.8701 7.308ZM42.5981 12.42C41.7581 12.42 41.0141 12.624 40.3661 13.032C39.7421 13.44 39.2501 14.016 38.8901 14.76C38.5541 15.504 38.3861 16.368 38.3861 17.352C38.3861 18.336 38.5541 19.2 38.8901 19.944C39.2501 20.664 39.7421 21.24 40.3661 21.672C41.0141 22.08 41.7581 22.284 42.5981 22.284C43.4381 22.284 44.1701 22.08 44.7941 21.672C45.4181 21.24 45.8981 20.664 46.2341 19.944C46.5941 19.2 46.7741 18.336 46.7741 17.352C46.7741 16.368 46.5941 15.504 46.2341 14.76C45.8981 14.016 45.4181 13.44 44.7941 13.032C44.1701 12.624 43.4381 12.42 42.5981 12.42ZM46.7741 0.287998H53.1821V27H46.7741V0.287998ZM68.753 28.944C68.033 30.744 67.037 32.076 65.765 32.94C64.493 33.828 62.945 34.272 61.121 34.272C60.017 34.272 58.997 34.104 58.061 33.768C57.149 33.456 56.249 32.952 55.361 32.256L58.025 27.9C58.889 28.62 59.753 28.98 60.617 28.98C61.145 28.98 61.601 28.848 61.985 28.584C62.393 28.344 62.717 27.972 62.957 27.468L63.425 26.532L55.361 7.56H61.949L66.593 20.304L70.733 7.56H77.105L68.753 28.944ZM79.2644 1.764H85.8524V12.852L95.3204 1.764H102.952L85.8524 20.7V27H79.2644V1.764ZM93.0884 11.448L103.528 27H95.6444L88.6964 16.632L93.0884 11.448ZM119.765 16.524C119.765 15.42 119.465 14.544 118.865 13.896C118.265 13.248 117.461 12.924 116.453 12.924C115.253 12.948 114.305 13.38 113.609 14.22C112.937 15.036 112.601 16.092 112.601 17.388H111.089C111.089 15.18 111.413 13.332 112.061 11.844C112.709 10.332 113.621 9.192 114.797 8.424C115.997 7.656 117.425 7.272 119.081 7.272C120.497 7.272 121.733 7.584 122.789 8.208C123.869 8.808 124.697 9.672 125.273 10.8C125.849 11.904 126.137 13.212 126.137 14.724V27H119.765V16.524ZM106.229 7.56H112.637V27H106.229V7.56ZM142.691 15.588C142.715 14.796 142.571 14.124 142.259 13.572C141.971 12.996 141.551 12.552 140.999 12.24C140.447 11.928 139.811 11.772 139.091 11.772C138.251 11.772 137.531 12 136.931 12.456C136.355 12.888 135.899 13.5 135.563 14.292C135.251 15.06 135.095 15.96 135.095 16.992C135.095 18.12 135.287 19.092 135.671 19.908C136.055 20.724 136.595 21.36 137.291 21.816C138.011 22.248 138.839 22.464 139.775 22.464C141.503 22.464 143.027 21.804 144.347 20.484L147.695 23.796C146.711 24.876 145.499 25.716 144.059 26.316C142.643 26.916 141.023 27.216 139.199 27.216C137.087 27.216 135.251 26.808 133.691 25.992C132.155 25.176 130.967 24.024 130.127 22.536C129.311 21.048 128.903 19.32 128.903 17.352C128.903 15.336 129.323 13.584 130.163 12.096C131.003 10.584 132.191 9.42 133.727 8.604C135.263 7.764 137.039 7.344 139.055 7.344C141.335 7.344 143.219 7.824 144.707 8.784C146.219 9.72 147.323 11.064 148.019 12.816C148.739 14.568 149.027 16.62 148.883 18.972H134.195V15.588H142.691ZM164.742 14.544C164.31 13.896 163.77 13.404 163.122 13.068C162.498 12.708 161.766 12.528 160.926 12.528C160.158 12.528 159.474 12.732 158.874 13.14C158.298 13.524 157.842 14.076 157.506 14.796C157.194 15.516 157.038 16.356 157.038 17.316C157.038 18.276 157.194 19.116 157.506 19.836C157.842 20.556 158.298 21.12 158.874 21.528C159.474 21.936 160.158 22.14 160.926 22.14C161.79 22.14 162.534 21.96 163.158 21.6C163.806 21.24 164.334 20.676 164.742 19.908L169.458 22.608C168.69 24.072 167.538 25.212 166.002 26.028C164.466 26.82 162.666 27.216 160.602 27.216C158.61 27.216 156.858 26.808 155.346 25.992C153.834 25.176 152.658 24.024 151.818 22.536C151.002 21.048 150.594 19.32 150.594 17.352C150.594 15.336 151.014 13.584 151.854 12.096C152.694 10.584 153.87 9.42 155.382 8.604C156.894 7.764 158.658 7.344 160.674 7.344C162.618 7.344 164.346 7.74 165.858 8.532C167.37 9.3 168.546 10.404 169.386 11.844L164.742 14.544ZM186.109 16.524C186.109 15.42 185.809 14.544 185.209 13.896C184.609 13.248 183.805 12.924 182.797 12.924C181.621 12.948 180.685 13.38 179.989 14.22C179.317 15.036 178.981 16.092 178.981 17.388H177.433C177.433 15.18 177.757 13.332 178.405 11.844C179.053 10.332 179.977 9.192 181.177 8.424C182.377 7.656 183.793 7.272 185.425 7.272C186.865 7.272 188.113 7.584 189.169 8.208C190.225 8.808 191.041 9.672 191.617 10.8C192.217 11.904 192.517 13.212 192.517 14.724V27H186.109V16.524ZM172.573 0.287998H178.981V27H172.573V0.287998ZM204.334 1.764H225.97V7.092H218.41V27H211.822V7.092H204.334V1.764ZM238.527 15.588C238.551 14.796 238.407 14.124 238.095 13.572C237.807 12.996 237.387 12.552 236.835 12.24C236.283 11.928 235.647 11.772 234.927 11.772C234.087 11.772 233.367 12 232.767 12.456C232.191 12.888 231.735 13.5 231.399 14.292C231.087 15.06 230.931 15.96 230.931 16.992C230.931 18.12 231.123 19.092 231.507 19.908C231.891 20.724 232.431 21.36 233.127 21.816C233.847 22.248 234.675 22.464 235.611 22.464C237.339 22.464 238.863 21.804 240.183 20.484L243.531 23.796C242.547 24.876 241.335 25.716 239.895 26.316C238.479 26.916 236.859 27.216 235.035 27.216C232.923 27.216 231.087 26.808 229.527 25.992C227.991 25.176 226.803 24.024 225.963 22.536C225.147 21.048 224.739 19.32 224.739 17.352C224.739 15.336 225.159 13.584 225.999 12.096C226.839 10.584 228.027 9.42 229.563 8.604C231.099 7.764 232.875 7.344 234.891 7.344C237.171 7.344 239.055 7.824 240.543 8.784C242.055 9.72 243.159 11.064 243.855 12.816C244.575 14.568 244.863 16.62 244.719 18.972H230.031V15.588H238.527ZM260.578 14.544C260.146 13.896 259.606 13.404 258.958 13.068C258.334 12.708 257.602 12.528 256.762 12.528C255.994 12.528 255.31 12.732 254.71 13.14C254.134 13.524 253.678 14.076 253.342 14.796C253.03 15.516 252.874 16.356 252.874 17.316C252.874 18.276 253.03 19.116 253.342 19.836C253.678 20.556 254.134 21.12 254.71 21.528C255.31 21.936 255.994 22.14 256.762 22.14C257.626 22.14 258.37 21.96 258.994 21.6C259.642 21.24 260.17 20.676 260.578 19.908L265.294 22.608C264.526 24.072 263.374 25.212 261.838 26.028C260.302 26.82 258.502 27.216 256.438 27.216C254.446 27.216 252.694 26.808 251.182 25.992C249.67 25.176 248.494 24.024 247.654 22.536C246.838 21.048 246.43 19.32 246.43 17.352C246.43 15.336 246.85 13.584 247.69 12.096C248.53 10.584 249.706 9.42 251.218 8.604C252.73 7.764 254.494 7.344 256.51 7.344C258.454 7.344 260.182 7.74 261.694 8.532C263.206 9.3 264.382 10.404 265.222 11.844L260.578 14.544ZM281.945 16.524C281.945 15.42 281.645 14.544 281.045 13.896C280.445 13.248 279.641 12.924 278.633 12.924C277.457 12.948 276.521 13.38 275.825 14.22C275.153 15.036 274.817 16.092 274.817 17.388H273.269C273.269 15.18 273.593 13.332 274.241 11.844C274.889 10.332 275.813 9.192 277.013 8.424C278.213 7.656 279.629 7.272 281.261 7.272C282.701 7.272 283.949 7.584 285.005 8.208C286.061 8.808 286.877 9.672 287.453 10.8C288.053 11.904 288.353 13.212 288.353 14.724V27H281.945V16.524ZM268.409 0.287998H274.817V27H268.409V0.287998Z" fill="#333333"/>
</svg>
